<svg width="100%" viewBox="0 0 111 13" fill="none" xmlns="http://www.w3.org/2000/svg">
<path fill-rule="evenodd" clip-rule="evenodd" d="M0 12.1569H2.2714L2.15291 11.9512C1.65972 11.0983 1.82953 9.82965 2.70331 7.8445L7.84452 7.82873L9.93245 12.1569H12.4796L6.34279 0L0 12.1569ZM2.86101 7.48713C3.35346 6.42417 3.98877 5.24423 4.71785 3.89085C4.91536 3.52419 5.11839 3.14725 5.32585 2.75896L7.66038 7.47249L2.86101 7.48713Z" fill="black"/>
<path d="M17.6484 3.60223L17.9039 3.19056C18.9674 1.47673 20.2871 0.750517 22.4367 0.707253V12.1574H24.8004V0.707253C26.8695 0.751625 28.1904 1.47857 29.3359 3.19421L29.5891 3.57327V0.365234H17.6484L17.6484 3.60223Z" fill="black"/>
<path d="M39.5502 11.8144V6.15415C41.486 6.20585 43.8685 6.35211 45.4755 6.98047L45.6645 7.05451V4.90737L45.4755 4.98143C43.8139 5.63141 41.3299 5.77657 39.5502 5.82385V0.705082C42.9745 0.715733 45.2027 1.13841 46.4349 3.18804L46.6918 3.61475V0.347656L37.2031 0.3649V12.1568H46.8738V8.47656L46.614 8.96009C45.5789 10.8862 43.4629 11.7429 39.5502 11.8144L39.5502 11.8144Z" fill="black"/>
<path d="M56.8514 11.815V0.365234H54.5039V12.1574H64.0421V8.47057L63.7819 8.96181C62.7475 10.9135 60.7352 11.7446 56.8514 11.815V11.815Z" fill="black"/>
<path d="M84.0526 11.8144V6.15415C85.988 6.20585 88.3705 6.35211 89.9778 6.98047L90.1665 7.05451V4.90737L89.9778 4.98143C88.3159 5.63141 85.8319 5.77657 84.0526 5.82385V0.705082C87.4765 0.715733 89.7047 1.13841 90.9369 3.18804L91.1938 3.61475V0.347656L81.7051 0.3649V12.1568H91.3762V8.47656L91.1159 8.96009C90.0812 10.8862 87.9648 11.7429 84.0525 11.8144L84.0526 11.8144Z" fill="black"/>
<path fill-rule="evenodd" clip-rule="evenodd" d="M109.896 11.9553C109.652 11.4846 109.404 10.3962 109.198 8.8891C108.953 7.14817 108.117 6.31087 106.15 6.02235C108.347 5.64441 109.498 4.71545 109.498 3.29749C109.498 1.35052 107.723 0.363281 104.223 0.363281H98.998V12.1554H101.345V6.23242L104.239 6.24817C106.012 6.24817 106.485 7.18994 106.737 8.92759C106.911 10.1308 107.115 11.4651 107.359 12.0689L107.393 12.1554H110L109.896 11.9553ZM101.345 0.703451H104.057C106.077 0.703451 107.101 1.57632 107.101 3.29748C107.101 5.44167 105.175 5.89184 103.56 5.89184H101.345V0.703451Z" fill="black"/>
<rect x="71.709" y="0.365234" width="2.34737" height="11.792" fill="black"/>
</svg>
